<?xml version="1.0" standalone="no"?>
<!DOCTYPE svg PUBLIC "-//W3C//DTD SVG 20010904//EN"
 "http://www.w3.org/TR/2001/REC-SVG-20010904/DTD/svg10.dtd">
<svg version="1.0" xmlns="http://www.w3.org/2000/svg"
 width="95.000000pt" height="93.000000pt" viewBox="0 0 95.000000 93.000000"
 preserveAspectRatio="xMidYMid meet">
<metadata>
Created by potrace 1.16, written by Peter Selinger 2001-2019
</metadata>
<g transform="translate(0.000000,93.000000) scale(0.100000,-0.100000)"
fill="#000000" stroke="none">
<path d="M1 767 l2 -161 18 35 c22 40 24 53 7 43 -8 -5 -6 2 3 16 9 14 22 25
29 25 8 0 15 6 18 14 3 9 0 11 -9 6 -8 -4 11 18 41 49 53 55 68 67 54 45 -4
-7 -1 -10 7 -7 8 3 14 10 14 18 0 7 11 20 25 29 14 9 21 11 16 4 -9 -16 -1
-16 25 -3 38 21 18 1 -26 -24 -70 -41 -142 -121 -183 -205 l-37 -75 0 -140 0
-141 38 -74 c43 -83 122 -168 185 -200 35 -18 59 -21 162 -21 81 0 132 5 155
14 18 8 36 12 38 9 3 -3 12 4 19 16 7 12 21 21 31 21 11 0 15 4 11 12 -4 6 -3
8 3 5 6 -4 22 2 36 13 14 11 32 20 40 20 8 0 18 7 21 16 3 8 10 13 15 10 5 -3
12 1 15 9 3 8 9 14 13 13 18 -5 59 16 81 40 25 29 39 24 22 -7 -6 -12 -8 -21
-5 -21 3 0 19 29 35 64 29 62 30 70 30 209 l0 145 -36 70 c-21 40 -60 94 -94
128 -32 32 -58 63 -57 67 1 5 -4 12 -12 15 -9 3 -11 0 -6 -8 6 -9 2 -9 -16 0
-34 18 -38 24 -10 15 18 -6 22 -4 15 6 -6 10 -1 9 16 -2 14 -9 25 -22 25 -29
0 -8 6 -15 14 -18 9 -3 11 0 6 9 -5 8 6 1 23 -15 17 -16 30 -34 29 -40 -1 -6
3 -10 9 -9 7 1 20 -7 30 -19 11 -12 13 -18 5 -13 -9 5 -12 3 -9 -6 3 -8 10
-14 17 -14 14 0 41 -33 41 -49 0 -6 -5 -4 -10 4 -15 23 -11 -1 4 -29 12 -21
14 -5 15 126 l2 151 -476 0 -476 0 2 -161z m356 147 c-3 -3 -12 -4 -19 -1 -8
3 -5 6 6 6 11 1 17 -2 13 -5z m270 0 c-3 -3 -12 -4 -19 -1 -8 3 -5 6 6 6 11 1
17 -2 13 -5z m-317 -14 c-8 -5 -19 -10 -25 -10 -5 0 -3 5 5 10 8 5 20 10 25
10 6 0 3 -5 -5 -10z m287 -292 l113 -113 0 -52 c0 -35 -4 -53 -12 -53 -7 0
-59 46 -115 102 l-103 103 -103 -103 c-56 -56 -106 -102 -110 -102 -4 0 -7 26
-7 57 l0 58 107 107 c59 60 110 108 113 108 2 0 55 -51 117 -112z m-82 -138
l29 -30 -52 -53 -53 -53 21 -19 c20 -18 21 -18 69 29 54 53 73 56 105 13 l21
-28 -89 -87 -88 -87 -79 85 c-43 47 -79 89 -79 95 0 10 150 165 160 165 4 0
19 -14 35 -30z"/>
<path d="M195 860 c-3 -5 -2 -10 4 -10 5 0 13 5 16 10 3 6 2 10 -4 10 -5 0
-13 -4 -16 -10z"/>
<path d="M115 788 l-40 -43 43 40 c39 36 47 45 39 45 -2 0 -21 -19 -42 -42z"/>
<path d="M815 810 c10 -11 20 -20 23 -20 3 0 -3 9 -13 20 -10 11 -20 20 -23
20 -3 0 3 -9 13 -20z"/>
<path d="M47 713 c-4 -3 -7 -11 -7 -17 0 -6 5 -5 12 2 6 6 9 14 7 17 -3 3 -9
2 -12 -2z"/>
<path d="M900 711 c0 -5 5 -13 10 -16 6 -3 10 -2 10 4 0 5 -4 13 -10 16 -5 3
-10 2 -10 -4z"/>
<path d="M1 125 l-2 -126 105 2 106 1 -38 28 c-51 37 -103 99 -139 166 l-30
56 -2 -127z m113 -52 c34 -34 59 -63 56 -63 -22 0 -161 169 -160 194 1 6 10
-7 21 -28 12 -22 49 -68 83 -103z"/>
<path d="M921 185 c-30 -56 -84 -120 -133 -155 l-38 -28 101 -1 100 -2 -2 116
c-1 63 -3 115 -3 115 -1 0 -12 -20 -25 -45z m4 -32 c-23 -35 -125 -143 -136
-143 -4 0 16 22 44 49 29 27 63 67 77 89 14 22 27 38 29 36 2 -2 -4 -16 -14
-31z"/>
<path d="M650 39 c0 -5 5 -7 10 -4 6 3 10 8 10 11 0 2 -4 4 -10 4 -5 0 -10 -5
-10 -11z"/>
</g>
</svg>
