<?xml version="1.0" standalone="no"?>
<!DOCTYPE svg PUBLIC "-//W3C//DTD SVG 20010904//EN"
 "http://www.w3.org/TR/2001/REC-SVG-20010904/DTD/svg10.dtd">
<svg version="1.0" xmlns="http://www.w3.org/2000/svg"
 width="500.000000pt" height="500.000000pt" viewBox="0 0 500.000000 500.000000"
 preserveAspectRatio="xMidYMid meet">
<metadata>
Created by potrace 1.16, written by Peter Selinger 2001-2019
</metadata>
<g transform="translate(0.000000,500.000000) scale(0.100000,-0.100000)"
fill="#000000" stroke="none">
<path d="M0 2500 l0 -2500 2500 0 2500 0 0 2500 0 2500 -2500 0 -2500 0 0
-2500z m2765 2003 c11 -6 56 -28 100 -49 44 -21 82 -41 85 -45 5 -6 165 -101
190 -112 8 -4 23 -12 32 -19 13 -10 22 -9 41 1 14 7 34 10 45 6 15 -4 52 8
116 39 113 54 156 58 220 21 24 -14 48 -36 54 -50 8 -16 20 -25 35 -25 13 0
36 -13 51 -29 29 -30 41 -66 57 -165 6 -41 23 -81 54 -133 34 -55 45 -84 45
-114 0 -61 32 -122 77 -145 21 -10 44 -25 51 -31 7 -7 20 -13 28 -13 8 0 14
-4 14 -9 0 -5 12 -14 28 -20 15 -6 68 -33 117 -61 50 -28 100 -56 113 -62 12
-6 22 -15 22 -19 0 -4 14 -10 30 -14 17 -4 30 -10 30 -15 0 -5 14 -11 30 -15
17 -4 30 -10 30 -14 0 -3 16 -15 35 -25 30 -16 84 -69 132 -129 7 -8 15 -27
19 -41 3 -14 10 -26 14 -26 5 0 12 -20 16 -45 3 -25 10 -48 15 -51 26 -16 -1
-284 -32 -318 -5 -6 -9 -17 -9 -25 0 -9 -6 -28 -14 -43 -8 -15 -17 -42 -21
-60 -8 -38 -43 -153 -55 -183 -5 -11 -18 -54 -31 -95 -12 -41 -25 -79 -28 -85
-4 -5 -18 -46 -31 -90 -13 -44 -27 -84 -31 -90 -4 -5 -10 -27 -14 -47 -4 -21
-11 -38 -16 -38 -5 0 -9 -9 -9 -21 0 -12 -6 -35 -14 -52 -7 -18 -26 -70 -41
-117 -14 -47 -30 -94 -35 -105 -5 -11 -18 -53 -30 -92 -12 -40 -25 -75 -30
-78 -5 -3 -11 -23 -15 -45 -4 -22 -11 -42 -16 -46 -5 -3 -9 -13 -9 -22 0 -9
-7 -30 -15 -46 -8 -15 -15 -36 -15 -45 0 -9 -6 -28 -14 -43 -8 -15 -17 -40
-21 -57 -4 -17 -10 -31 -15 -31 -5 0 -11 -14 -15 -30 -4 -17 -10 -30 -15 -30
-4 0 -13 -13 -19 -30 -5 -16 -15 -30 -20 -30 -6 0 -11 -6 -11 -12 -1 -34 -181
-178 -222 -178 -4 0 -36 -14 -71 -30 -36 -17 -71 -30 -79 -30 -7 0 -22 -7 -32
-15 -11 -8 -28 -15 -38 -15 -10 0 -18 -4 -18 -9 0 -5 -12 -12 -26 -15 -14 -4
-49 -18 -77 -32 -29 -14 -110 -50 -182 -80 -71 -30 -156 -68 -188 -85 -31 -16
-64 -29 -72 -29 -8 0 -15 -4 -15 -10 0 -5 -6 -10 -12 -10 -7 -1 -31 -9 -53
-20 -22 -11 -46 -19 -52 -20 -7 0 -13 -4 -13 -10 0 -5 -5 -10 -11 -10 -5 0
-57 -22 -114 -50 -58 -27 -116 -52 -130 -56 -14 -3 -25 -10 -25 -14 0 -5 -15
-12 -32 -15 -18 -4 -39 -12 -47 -19 -21 -17 -369 -15 -407 3 -16 7 -42 19 -59
26 -103 46 -271 129 -273 136 -2 5 -11 9 -19 9 -8 0 -41 13 -72 29 -31 16 -81
41 -111 56 -30 14 -62 30 -70 35 -8 5 -35 18 -60 30 -25 11 -52 25 -60 30 -8
4 -34 18 -57 29 -23 11 -50 25 -60 30 -10 6 -70 36 -133 67 -63 30 -143 71
-177 90 l-63 35 0 -54 c0 -67 -15 -83 -93 -92 -31 -4 -60 -11 -62 -15 -3 -5
-30 -12 -61 -16 -43 -5 -58 -3 -65 7 -5 8 -9 108 -8 224 0 116 0 215 0 220 -1
6 -36 28 -78 50 -76 40 -163 110 -163 132 0 7 -6 16 -13 20 -16 11 -44 68 -59
123 -23 88 -6 330 23 330 5 0 9 5 9 11 0 6 7 27 17 46 11 25 13 37 5 42 -6 4
-12 32 -13 63 -2 53 0 59 39 104 45 50 62 95 62 161 0 55 15 87 66 146 28 31
45 61 49 87 4 22 10 42 15 45 4 3 11 22 15 42 4 21 10 43 14 48 4 6 13 30 20
55 42 153 121 393 142 432 5 10 9 26 9 35 0 10 6 30 14 45 8 14 17 45 21 67 4
23 10 41 15 41 4 0 11 20 14 45 4 25 11 45 15 45 5 0 11 18 15 41 7 46 36 106
75 159 58 79 111 119 261 197 45 24 95 54 113 67 18 13 42 27 55 31 12 3 22
11 22 16 0 5 5 9 11 9 6 0 37 15 68 34 50 31 92 55 147 84 11 6 58 33 105 61
48 28 92 51 98 51 6 0 11 5 11 10 0 6 5 10 11 10 9 0 85 43 177 102 15 9 51
29 81 44 30 14 61 32 68 39 11 11 65 39 233 119 29 14 61 16 180 13 83 -1 154
-8 165 -14z"/>
<path d="M2495 4495 c-89 -18 -159 -49 -245 -105 -8 -6 -24 -14 -36 -19 -11
-5 -52 -28 -90 -52 -38 -23 -98 -58 -134 -77 -36 -19 -84 -48 -108 -63 -24
-16 -45 -29 -48 -29 -2 0 -110 -63 -239 -140 -129 -77 -239 -140 -245 -140 -5
0 -10 -4 -10 -9 0 -5 -8 -11 -17 -15 -46 -16 -203 -115 -203 -128 0 -15 27 -8
76 18 129 68 149 79 154 84 3 3 20 13 38 22 18 10 65 35 105 57 39 21 99 53
132 71 33 18 65 35 70 40 6 4 40 23 76 43 151 82 239 126 239 119 0 -7 -146
-96 -264 -160 -34 -19 -135 -78 -226 -131 -160 -94 -304 -178 -364 -210 -43
-24 -88 -69 -128 -131 -54 -84 -65 -107 -99 -215 -102 -322 -167 -481 -92
-225 13 47 38 132 54 190 16 58 35 122 41 143 6 20 8 40 5 43 -11 11 -53 -95
-107 -266 -29 -91 -56 -174 -60 -185 -8 -20 -42 -121 -95 -285 -39 -121 -64
-214 -59 -219 7 -7 44 31 44 45 0 26 33 82 54 92 12 5 64 31 117 56 52 25 104
46 114 46 17 0 17 -2 -4 -24 -16 -17 -21 -31 -16 -45 4 -14 1 -23 -8 -27 -12
-4 -13 -12 -6 -37 14 -51 11 -67 -12 -67 -18 0 -19 2 -9 15 10 12 10 18 0 30
-10 13 -17 11 -46 -11 -18 -14 -36 -36 -40 -47 -3 -12 -19 -50 -35 -84 -40
-86 -38 -104 7 -62 l22 21 22 -22 23 -23 -32 -13 c-17 -7 -31 -20 -31 -29 0
-9 -7 -18 -14 -21 -8 -3 -22 -28 -32 -56 -21 -64 -37 -50 -32 30 2 47 0 58
-11 54 -10 -4 -12 6 -10 47 3 31 0 50 -6 48 -5 -2 -10 -13 -11 -25 -2 -29 -32
-90 -66 -133 -22 -27 -28 -42 -23 -61 5 -19 1 -31 -13 -44 -11 -11 -22 -30
-24 -44 -3 -23 -8 -25 -49 -25 -66 -1 -79 -15 -79 -86 0 -32 -4 -60 -9 -64 -5
-3 -12 -19 -16 -35 -4 -17 -10 -30 -15 -30 -5 0 -12 -15 -15 -32 -4 -18 -12
-39 -19 -47 -18 -23 -13 -240 7 -276 9 -16 17 -38 17 -47 0 -10 5 -18 10 -18
6 0 10 -6 10 -13 0 -38 84 -114 188 -167 81 -42 87 -47 86 -75 -1 -17 -5 -116
-10 -222 l-7 -192 27 -7 c17 -4 48 0 78 10 28 9 57 16 64 16 8 0 32 6 54 12
l40 13 0 67 0 68 53 -30 c28 -16 72 -39 97 -50 25 -11 52 -25 60 -30 20 -12
184 -93 290 -143 47 -22 87 -44 88 -48 2 -5 8 -9 14 -9 6 0 90 -39 187 -86 97
-47 192 -93 211 -102 19 -9 37 -20 38 -24 2 -5 9 -8 15 -8 7 0 37 -13 67 -28
133 -68 174 -77 325 -77 112 1 147 4 174 18 19 9 39 17 44 17 5 0 47 18 93 40
107 51 248 117 299 140 22 10 69 32 105 48 81 37 199 90 225 102 11 5 51 23
89 40 58 26 273 117 351 149 176 72 215 101 305 222 52 69 68 109 177 419 93
268 91 261 123 352 17 46 55 157 85 248 30 91 59 174 64 185 5 11 26 74 46
140 20 66 40 129 45 140 16 40 79 241 90 289 35 153 -12 316 -124 426 -28 28
-54 50 -58 50 -4 0 -36 17 -70 38 -57 35 -163 94 -250 140 -18 9 -35 20 -38
24 -3 3 -18 10 -33 13 -15 4 -27 10 -27 14 0 3 -34 24 -76 46 -85 45 -108 77
-120 169 -5 33 -21 74 -47 116 -37 60 -58 113 -59 150 -1 36 -28 123 -44 141
-9 10 -26 19 -37 19 -10 0 -33 15 -51 34 -17 18 -46 41 -65 51 -34 17 -35 17
-53 -6 -10 -13 -28 -36 -40 -50 -12 -15 -34 -51 -50 -80 -17 -30 -38 -63 -48
-74 -10 -11 -29 -43 -43 -71 -25 -50 -86 -114 -110 -114 -14 -1 -123 -100
-109 -100 5 0 26 13 48 30 49 37 57 37 49 -1 -5 -23 -3 -34 10 -43 36 -26 -21
-136 -70 -136 -26 0 -49 -23 -42 -42 7 -20 -30 -86 -52 -93 -11 -3 -21 -16
-23 -28 -2 -13 -21 -34 -50 -52 -37 -24 -47 -36 -47 -57 -1 -16 -5 -28 -9 -28
-15 0 -72 -85 -67 -99 7 -17 -33 -121 -46 -121 -4 0 -22 13 -39 30 -26 25 -50
92 -50 137 0 2 -4 2 -9 -1 -4 -3 -18 -32 -30 -66 -23 -62 -69 -110 -106 -110
-16 0 -16 3 7 28 14 15 38 46 53 70 15 23 30 42 34 42 3 0 12 14 19 30 8 17
18 30 24 30 13 0 68 56 68 70 0 14 -18 12 -23 -2 -2 -8 -11 0 -20 17 -11 20
-16 24 -17 13 0 -10 -4 -18 -10 -18 -15 0 -12 47 5 80 8 16 12 36 9 44 -5 13
-2 15 12 9 18 -7 18 -6 2 11 -38 38 -35 94 7 144 14 17 25 39 25 49 0 43 24
85 67 118 25 19 69 65 98 102 30 38 67 77 84 88 17 11 31 25 31 30 0 14 -236
152 -308 180 -117 47 -259 42 -373 -15 -34 -17 -63 -29 -65 -27 -7 6 120 67
171 82 28 8 67 15 88 15 31 0 39 4 47 26 11 27 34 23 25 -5 -4 -14 5 -20 43
-30 53 -13 163 -67 230 -112 24 -16 46 -29 49 -29 4 0 14 -6 22 -13 9 -8 33
-24 53 -36 l37 -22 20 23 c12 12 21 25 21 30 0 8 -258 163 -345 208 -46 23
-60 25 -185 25 -132 0 -137 -1 -200 -32 -35 -18 -66 -31 -67 -29 -8 8 119 65
179 81 134 35 233 7 468 -134 l165 -99 23 21 c12 11 22 23 22 26 0 4 -37 28
-82 55 -46 27 -85 52 -88 55 -5 7 -37 24 -145 80 -157 80 -230 94 -360 66z
m-497 -429 c-31 -19 -76 -46 -100 -59 -24 -13 -97 -55 -163 -92 -66 -37 -149
-83 -185 -103 -36 -20 -76 -43 -90 -53 -14 -10 -59 -35 -100 -57 -41 -22 -105
-56 -142 -76 -37 -20 -72 -36 -78 -36 -23 0 -2 25 40 47 23 13 91 49 149 82
58 32 138 76 176 96 39 21 120 65 180 98 61 33 139 76 175 95 36 19 88 48 115
63 72 40 91 35 23 -5z m1377 -186 c0 -7 -6 -15 -12 -17 -8 -3 -13 4 -13 17 0
13 5 20 13 18 6 -3 12 -11 12 -18z m-1142 -157 c6 -31 12 -41 22 -36 8 3 15 1
15 -5 0 -5 -7 -12 -15 -16 -8 -3 -15 -12 -15 -21 0 -8 -7 -15 -15 -15 -8 0
-24 -9 -35 -20 -18 -18 -18 -20 -2 -29 15 -8 14 -11 -8 -30 -14 -11 -30 -20
-36 -21 -7 0 -28 -18 -48 -40 -39 -43 -59 -49 -94 -24 -31 22 -27 45 16 92 36
39 43 42 90 42 52 0 52 0 52 33 0 45 -14 65 -33 48 -20 -16 -31 2 -18 28 18
32 63 62 90 59 21 -2 27 -10 34 -45z m-783 -19 c0 -17 -22 -14 -28 4 -2 7 3
12 12 12 9 0 16 -7 16 -16z m1048 -11 c-12 -3 -20 -18 -24 -44 -8 -48 -19 -50
-38 -4 -9 19 -25 39 -38 45 -17 6 -5 9 47 8 39 0 62 -2 53 -5z m-640 -45 c4
-32 22 -38 22 -8 0 18 7 20 63 20 38 0 71 -6 82 -14 17 -12 15 -15 -29 -35
-27 -11 -50 -21 -52 -21 -2 0 -20 -12 -41 -26 l-38 -25 -9 33 c-6 23 -10 28
-15 17 -6 -16 -27 -42 -49 -62 -50 -44 -62 -57 -62 -68 0 -7 8 -9 23 -4 38 13
137 18 137 7 0 -6 -9 -14 -20 -17 -24 -8 -42 -38 -34 -58 7 -21 -21 -74 -48
-88 -11 -6 -51 -12 -87 -13 -54 -1 -66 -4 -69 -18 -2 -13 3 -18 17 -18 31 0
17 -27 -49 -90 -59 -57 -133 -154 -124 -163 11 -10 -29 -57 -47 -57 -18 0 -19
9 -19 135 0 74 -4 135 -8 135 -13 0 -68 -72 -76 -98 -6 -18 -11 -21 -22 -11
-11 9 -15 8 -20 -4 -10 -28 0 -51 26 -57 14 -3 25 -11 24 -18 -1 -7 -2 -21 -2
-32 -1 -12 -9 -20 -20 -20 -10 0 -28 -7 -41 -16 -21 -15 -21 -18 -7 -26 9 -5
21 -6 26 -3 17 10 11 -26 -10 -59 -10 -18 -37 -47 -60 -64 -26 -22 -40 -41
-40 -56 0 -13 -6 -29 -14 -35 -12 -10 -15 -8 -18 11 -4 28 -38 38 -38 11 0
-10 -11 -26 -24 -35 -23 -17 -25 -16 -50 7 -22 20 -26 32 -26 81 0 45 5 62 25
86 28 33 30 44 15 84 -9 22 -6 35 21 82 33 58 86 126 151 192 30 30 46 38 85
42 42 4 56 12 97 51 26 26 52 47 57 47 5 0 9 6 9 13 0 27 59 77 106 89 36 10
52 20 63 42 22 40 99 125 136 148 43 27 79 20 83 -14z m457 -68 c3 -5 -1 -10
-9 -10 -18 0 -21 -16 -6 -25 5 -3 20 3 32 14 19 18 48 28 48 18 0 -6 -79 -87
-84 -87 -2 0 -7 8 -9 18 -3 11 -5 8 -6 -9 -1 -21 -8 -28 -43 -39 -24 -7 -53
-19 -65 -27 -13 -7 -23 -11 -23 -8 0 10 36 40 63 52 15 7 27 19 27 28 0 8 7
15 15 15 10 0 15 10 15 28 0 16 3 32 7 35 10 10 31 8 38 -3z m-1311 -199 c-4
-17 -9 -30 -11 -27 -3 2 -2 19 2 36 9 41 17 33 9 -9z m2931 15 c17 -13 27 -28
22 -32 -8 -9 -59 26 -65 44 -6 19 10 14 43 -12z m-1811 0 c-3 -8 -12 -17 -20
-20 -8 -3 -19 -17 -24 -31 -11 -29 -30 -33 -30 -7 0 22 18 46 45 60 27 15 35
15 29 -2z m-1148 -103 c-8 -50 -40 -161 -60 -202 -6 -14 -10 -62 -10 -108 1
-47 -2 -81 -7 -77 -5 3 -9 14 -9 25 0 23 -15 25 -24 3 -4 -9 -9 -14 -13 -11
-3 4 8 48 26 99 47 141 91 288 91 304 0 8 3 14 6 14 4 0 3 -21 0 -47z m2086
-46 c-7 -8 -8 -24 -4 -42 5 -19 11 -25 16 -17 4 7 12 12 18 12 16 0 -13 -31
-38 -40 -11 -5 -30 -26 -41 -48 l-19 -39 -11 26 c-18 42 -23 101 -11 126 6 13
27 30 47 38 39 15 62 7 43 -16z m946 -12 c-3 -3 -13 7 -23 22 l-17 28 23 -22
c12 -12 20 -25 17 -28z m-2020 9 c-9 -9 -32 -18 -52 -19 -38 -2 -66 -19 -66
-41 0 -8 -4 -14 -10 -14 -5 0 -10 13 -10 28 0 38 39 58 120 61 32 1 33 0 18
-15z m-166 -50 c-5 -25 -6 -26 -18 -9 -10 13 -11 22 -3 32 16 19 27 7 21 -23z
m-42 13 c0 -8 -9 -22 -20 -32 -16 -15 -23 -16 -33 -6 -9 10 -7 16 12 32 27 22
41 24 41 6z m-803 -39 c-3 -7 -5 -2 -5 12 0 14 2 19 5 13 2 -7 2 -19 0 -25z
m725 -20 c0 -13 0 -32 -1 -42 -2 -23 -33 -49 -42 -34 -3 5 -9 0 -12 -11 -4
-16 -13 -21 -36 -21 -29 0 -31 -3 -31 -34 0 -39 -24 -66 -42 -48 -9 9 -9 18 0
37 6 13 9 32 6 40 -4 8 1 17 9 21 9 3 13 12 10 21 -10 26 73 90 120 92 11 1
18 -7 19 -21z m-709 -31 c-3 -5 -10 -4 -15 1 -6 6 -7 16 -3 22 6 9 9 9 16 -1
4 -7 5 -17 2 -22z m1724 -4 c-3 -16 -14 -57 -23 -92 -13 -48 -15 -66 -6 -69
18 -6 14 -23 -11 -46 -21 -20 -23 -20 -39 -4 -10 10 -20 30 -24 45 -11 45 -15
46 -36 12 -23 -37 -49 -60 -60 -53 -14 9 -9 91 7 104 8 7 15 20 15 29 0 9 12
31 28 48 27 32 72 50 126 52 26 1 28 -1 23 -26z m762 -40 c-1 -18 -3 -22 -6
-10 -8 31 -27 13 -43 -41 -8 -28 -18 -54 -22 -58 -5 -4 -8 -22 -8 -39 0 -34
-36 -133 -54 -151 -15 -14 -86 -37 -93 -30 -8 8 -7 54 3 107 10 52 116 222
149 238 11 5 32 10 48 10 23 1 27 -3 26 -26z m-1739 9 c0 -4 -12 -25 -27 -47
-32 -47 -44 -30 -13 20 20 32 40 46 40 27z m2005 -56 c17 -13 26 -28 22 -32
-4 -4 -27 11 -50 35 -43 44 -27 42 28 -3z m-2799 -98 c-18 -26 -22 -17 -5 14
6 11 13 17 16 15 3 -3 -2 -16 -11 -29z m1505 -11 c-25 -40 -27 -54 -6 -37 26
21 28 3 3 -22 -21 -21 -21 -23 -5 -26 10 -2 29 4 43 13 29 19 44 13 37 -14 -8
-29 -171 -181 -195 -181 -17 0 -18 -3 -8 -15 6 -8 9 -18 6 -24 -12 -18 7 -73
27 -80 16 -6 17 -10 7 -16 -9 -5 -15 -4 -18 3 -6 19 -22 3 -22 -21 0 -12 -11
-39 -24 -61 -18 -30 -24 -35 -29 -22 -4 9 -2 28 4 42 18 48 -10 128 -32 93 -7
-11 -9 -11 -9 3 0 9 4 18 9 20 5 2 25 24 45 50 30 40 34 52 26 72 -11 31 -26
39 -46 28 -15 -8 -14 -11 6 -25 l23 -16 -49 -45 c-44 -41 -64 -54 -64 -42 0 2
13 33 29 69 26 57 33 66 63 72 57 11 89 27 84 41 -3 8 12 27 34 46 38 29 50
48 32 48 -4 0 -19 -11 -32 -23 -19 -18 -29 -21 -41 -14 -15 9 -12 13 20 29 20
10 49 37 64 59 34 49 49 45 18 -4z m-1664 -9 c-3 -8 -6 -5 -6 6 -1 11 2 17 5
13 3 -3 4 -12 1 -19z m60 -20 c-3 -8 -6 -5 -6 6 -1 11 2 17 5 13 3 -3 4 -12 1
-19z m1786 -45 c-8 -25 -33 -43 -57 -43 -18 1 -16 5 14 30 39 34 52 38 43 13z
m-97 -145 c-4 -24 -16 -61 -26 -83 l-20 -40 6 45 c4 25 13 55 20 67 8 12 14
32 14 44 0 12 3 20 6 16 4 -3 3 -25 0 -49z m165 -11 c-16 -16 -26 0 -10 19 9
11 15 12 17 4 2 -6 -1 -17 -7 -23z m-248 -23 c-14 -14 -27 -23 -29 -21 -7 7
37 57 46 52 5 -3 -3 -17 -17 -31z m670 13 l28 -22 -47 -70 c-48 -71 -134 -235
-134 -254 0 -6 -6 -25 -14 -43 -8 -18 -22 -52 -31 -75 -10 -23 -22 -40 -26
-37 -19 11 -9 109 16 159 13 28 25 60 25 71 0 12 14 55 31 95 18 41 40 99 50
129 27 76 52 88 102 47z m-702 -77 c24 0 24 -12 2 -33 -27 -23 -57 -25 -61 -4
-4 20 30 65 36 48 2 -6 12 -11 23 -11z m860 -41 l24 -21 -36 -31 c-20 -18 -40
-41 -44 -52 l-7 -20 -8 20 c-5 13 -1 33 11 55 10 19 20 43 23 53 7 22 8 21 37
-4z m-2271 -26 c0 -10 -98 -100 -116 -107 -8 -3 -14 -11 -14 -17 0 -8 -4 -8
-15 1 -22 18 -18 43 8 60 40 25 122 70 130 70 4 0 7 -3 7 -7z m1480 0 c0 -5
-5 -15 -10 -23 -7 -12 -9 -10 -7 8 1 19 17 33 17 15z m-281 -98 c-28 -52 -59
-76 -59 -45 0 11 6 20 13 20 7 0 19 17 26 38 8 20 19 48 24 62 l11 25 4 -29
c2 -17 -6 -46 -19 -71z m-32 -136 c-10 -17 -37 -34 -37 -24 0 2 4 15 10 29 6
17 15 24 24 20 12 -5 13 -9 3 -25z m-1256 -15 c-12 -20 -20 -39 -17 -41 2 -2
28 12 56 32 44 31 120 58 120 43 0 -3 -22 -19 -48 -36 -27 -17 -64 -48 -83
-68 -19 -20 -44 -47 -56 -61 -29 -31 -47 -63 -34 -63 5 0 12 5 14 10 3 6 4 5
3 -2 -2 -7 -9 -13 -17 -13 -10 0 -16 17 -20 55 -6 52 -4 59 34 118 21 34 46
62 54 62 12 0 11 -7 -6 -36z m1444 -54 c-8 -16 -16 -37 -16 -47 -1 -10 -5 0
-8 22 -8 48 -6 55 20 55 18 0 19 -2 4 -30z m-1620 -58 c0 -9 -4 -22 -8 -29 -4
-6 -4 -18 -1 -27 4 -10 -5 -26 -25 -43 -16 -15 -37 -45 -46 -65 -8 -21 -17
-38 -18 -38 -4 0 11 119 18 141 7 20 62 79 73 79 5 0 8 -8 7 -18z m1515 -9
c-1 -5 -12 -21 -25 -38 -28 -34 -34 -17 -7 20 17 24 32 32 32 18z m-1630 -51
c0 -5 -13 -21 -30 -37 -16 -16 -30 -36 -30 -44 -1 -9 -7 -27 -15 -41 -14 -24
-14 -23 -14 25 -1 55 3 64 39 88 26 18 50 22 50 9z m-137 -55 c14 -37 -23
-152 -46 -144 -16 5 -21 96 -8 130 11 28 45 37 54 14z m3437 -39 c0 -18 -4
-38 -8 -44 -7 -10 -194 -34 -271 -34 -57 0 -81 -14 -81 -48 0 -15 -3 -22 -8
-15 -5 8 -17 6 -45 -7 l-37 -18 -7 26 c-4 15 -7 52 -8 82 l0 55 50 7 c56 9
269 24 358 26 l57 2 0 -32z m-540 -35 c0 -71 4 -69 -168 -81 -207 -16 -202
-14 -202 -68 0 -41 -2 -43 -37 -53 -71 -20 -70 -22 -72 89 -1 80 1 101 13 106
13 5 329 30 424 33 40 1 42 -1 42 -26z m-568 -63 l-7 -45 -70 -6 c-39 -4 -104
-10 -145 -13 -41 -4 -93 -9 -115 -12 l-40 -5 0 -57 0 -57 -62 -3 -61 -3 -7 73
c-4 40 -5 89 -3 108 l3 35 90 7 c50 4 162 14 250 21 88 7 163 11 167 7 4 -3 4
-26 0 -50z m-572 -43 c0 -55 -13 -67 -69 -67 -49 0 -169 -17 -183 -26 -5 -3
-4 -11 1 -18 6 -7 8 -15 6 -18 -3 -3 -6 -26 -7 -52 -1 -50 4 -46 -75 -50 -19
-1 -20 4 -22 88 l-1 49 -91 -7 c-51 -4 -97 -8 -102 -9 -13 -2 -32 75 -24 96 4
10 42 17 139 26 164 15 329 28 386 30 l42 1 0 -43z m-637 -107 c-2 -52 -5
-101 -8 -107 -3 -9 -27 -13 -70 -13 l-65 0 0 44 c0 25 -4 48 -10 51 -5 3 -10
28 -10 55 0 54 -2 53 100 63 67 7 65 11 63 -93z m-263 23 c0 -26 -6 -62 -12
-81 -11 -29 -16 -33 -38 -27 -14 4 -36 7 -50 8 -34 3 -40 13 -40 79 0 64 1 65
88 67 l52 1 0 -47z m-749 15 c-5 -13 -9 -27 -9 -31 -1 -4 -10 -20 -21 -35 -25
-33 -27 -12 -4 31 32 59 50 76 34 35z m2969 12 c0 -15 -81 -33 -93 -21 -11 11
-4 15 38 24 36 8 55 7 55 -3z m-2750 -205 c0 -13 -52 -25 -107 -25 l-33 0 0
101 0 101 70 -83 c39 -45 70 -88 70 -94z m1057 73 c-3 -7 -5 -2 -5 12 0 14 2
19 5 13 2 -7 2 -19 0 -25z m582 -482 l1 -82 -70 -12 c-86 -15 -90 -15 -90 -2
0 13 8 15 83 30 l57 11 0 82 c0 51 4 77 9 68 5 -8 9 -50 10 -95z m-439 -26 c0
-114 1 -113 -92 -124 l-58 -6 2 87 2 88 5 -75 c3 -41 8 -74 11 -73 3 1 29 5
58 9 l52 7 0 87 c0 76 4 100 17 100 2 0 3 -45 3 -100z m1310 70 c-56 -12 -145
-22 -138 -15 8 8 99 22 143 23 29 0 29 0 -5 -8z m-180 -29 c-36 -11 -156 -24
-148 -16 8 8 98 22 143 23 29 0 29 0 5 -7z m-180 -31 c-36 -12 -80 -12 -80 0
0 6 24 10 53 9 41 -1 47 -3 27 -9z m1000 -39 c0 -14 -47 -67 -53 -61 -5 4 42
69 51 70 1 0 2 -4 2 -9z m-2360 -145 c0 -10 -20 -16 -67 -21 -36 -4 -72 -9
-80 -12 -7 -3 -13 -1 -13 4 0 5 8 10 18 11 16 2 134 28 140 31 1 0 2 -5 2 -13z"/>
<path d="M1664 3409 c-19 -22 -19 -22 4 -10 12 6 22 16 22 21 0 15 -5 12 -26
-11z"/>
<path d="M1365 3250 c-3 -5 -1 -10 4 -10 6 0 11 5 11 10 0 6 -2 10 -4 10 -3 0
-8 -4 -11 -10z"/>
<path d="M1197 2992 c-10 -10 -17 -26 -17 -35 0 -9 -9 -21 -19 -27 -44 -23
-66 -60 -35 -60 8 0 12 5 9 10 -3 6 -1 10 4 10 6 0 11 -4 11 -10 0 -5 9 -10
19 -10 16 0 22 11 31 58 6 31 13 63 15 70 6 17 1 15 -18 -6z"/>
<path d="M2996 3865 c-3 -8 -1 -15 3 -15 5 0 11 7 15 15 3 8 1 15 -3 15 -5 0
-11 -7 -15 -15z"/>
<path d="M2991 3712 c-23 -32 -27 -40 -12 -27 29 25 65 75 54 75 -4 -1 -23
-22 -42 -48z"/>
<path d="M2886 3577 c-11 -28 -36 -63 -60 -84 -41 -35 -41 -36 -11 -29 17 4
45 22 63 40 29 29 33 38 30 77 l-3 44 -19 -48z"/>
</g>
</svg>
